<?xml version="1.0" encoding="UTF-8"?>
<svg width="412px" height="258px" viewBox="0 0 412 258" version="1.1" xmlns="http://www.w3.org/2000/svg" xmlns:xlink="http://www.w3.org/1999/xlink" xmlns:sketch="http://www.bohemiancoding.com/sketch/ns">
    <title>Slice 1</title>
    <description>Created with Sketch (http://www.bohemiancoding.com/sketch)</description>
    <defs></defs>
    <g id="Page 1" stroke="none" stroke-width="1" fill="none" fill-rule="evenodd">
        <path d="M356.104,100.64 C351.66,44.673 304.836,0.64 247.728,0.64 C208.911,0.64 174.85,20.988 155.614,51.593 C119.432,31.136 73.288,55.204 70.397,97.491 C30.729,102.349 0,136.132 0,177.114 C0,221.432 35.928,257.36 80.246,257.36 L178.516,257.36 L178.516,184.053 L145.301,184.053 L216.001,113.242 L286.699,184.053 L253.485,184.053 L253.485,257.36 L331.754,257.36 C376.072,257.36 412,221.432 412,177.114 C412,141.286 388.516,110.952 356.104,100.64 L356.104,100.64 Z M356.104,100.64" id="upload-10-icon" fill="#000000"></path>
    </g>
</svg>