<?xml version="1.0" encoding="UTF-8"?>
<svg width="454px" height="422px" viewBox="0 0 454 422" version="1.1" xmlns="http://www.w3.org/2000/svg" xmlns:xlink="http://www.w3.org/1999/xlink" xmlns:sketch="http://www.bohemiancoding.com/sketch/ns">
    <title>Slice 1</title>
    <description>Created with Sketch (http://www.bohemiancoding.com/sketch)</description>
    <defs></defs>
    <g id="Page 1" stroke="none" stroke-width="1" fill="none" fill-rule="evenodd">
        <path d="M226.8645,65.580488 C176.532342,-37.3224818 28.0894549,-11.5137214 4.51428594,90.130338 C-33.8577571,255.574172 183.78883,330.79947 226.8645,422 C269.94017,330.79947 487.586258,255.576282 449.21485,90.130338 C425.640453,-11.511527 277.196658,-37.3224818 226.8645,65.580488 Z M226.8645,65.580488" id="favorite-4-icon copy" fill-opacity="0.9" fill="#8E44AD"></path>
        <path d="M267,372.941107 C267,388.507652 279.618548,401.125 295.183891,401.125 C310.747994,401.125 323.367783,388.507652 323.367783,372.941107 C323.367783,357.376956 295.183891,309 295.183891,309 C295.183891,309 267,357.376956 267,372.941107 L267,372.941107 Z M350.8517,277 C350.8517,277 336.809964,301.10197 336.809964,308.855565 C336.809964,316.6104 343.095639,322.8961 350.8517,322.8961 C358.605317,322.8961 364.8922,316.6104 364.8922,308.855565 C364.8922,301.10197 350.8517,277 350.8517,277 L350.8517,277 Z M350.8517,277" id="drops" fill="#FFFFFF"></path>
    </g>
</svg>