<?xml version="1.0" encoding="UTF-8"?>
<svg width="90px" height="93px" viewBox="0 0 90 93" version="1.1" xmlns="http://www.w3.org/2000/svg" xmlns:xlink="http://www.w3.org/1999/xlink" xmlns:sketch="http://www.bohemiancoding.com/sketch/ns">
    <title>Slice 1</title>
    <description>Created with Sketch (http://www.bohemiancoding.com/sketch)</description>
    <defs></defs>
    <g id="Page 1" stroke="none" stroke-width="1" fill="none" fill-rule="evenodd">
        <path d="M0,63.9411066 C0,79.5076521 12.6185505,92.125 28.1838966,92.125 C43.7480025,92.125 56.3677931,79.5076521 56.3677931,63.9411066 C56.3677931,48.3769564 28.1838966,0 28.1838966,0 C28.1838966,0 0,48.3769564 0,63.9411066 L0,63.9411066 Z M75.8517139,3.55271368e-15 C75.8517139,3.55271368e-15 61.8099754,24.1019698 61.8099754,31.8555652 C61.8099754,39.6103998 68.0956515,45.8961002 75.8517139,45.8961002 C83.605333,45.8961002 89.8922167,39.6103998 89.8922167,31.8555652 C89.8922167,24.1019698 75.8517139,3.55271368e-15 75.8517139,3.55271368e-15 L75.8517139,3.55271368e-15 Z M75.8517139,3.55271368e-15" id="drops" fill="#FFFFFF"></path>
    </g>
</svg>